HIERARCHY
ROOT joint_0
{
	OFFSET 0.000000 0.000000 0.000000
	CHANNELS 6 Xposition Yposition Zposition Zrotation Yrotation Xrotation 
	JOINT joint_1
	{
		OFFSET 17.107422 0.519409 105.452026
		CHANNELS 3 Zrotation Yrotation Xrotation
		JOINT joint_2
		{
			OFFSET 6.110352 -1.434082 97.381958
			CHANNELS 3 Zrotation Yrotation Xrotation
			JOINT joint_3
			{
				OFFSET 6.305908 -1.739990 97.255005
				CHANNELS 3 Zrotation Yrotation Xrotation
				JOINT joint_4
				{
					OFFSET 22.074707 -0.492493 131.077026
					CHANNELS 3 Zrotation Yrotation Xrotation
					JOINT joint_5
					{
						OFFSET 34.162842 2.248718 78.700928
						CHANNELS 3 Zrotation Yrotation Xrotation
						End Site
						{
							OFFSET 0.000000 0.000000 0.000000
						}
					}
				}
				JOINT joint_6
				{
					OFFSET 17.059082 -28.836914 72.664062
					CHANNELS 3 Zrotation Yrotation Xrotation
					JOINT joint_7
					{
						OFFSET 22.639893 -134.803833 -24.691040
						CHANNELS 3 Zrotation Yrotation Xrotation
						JOINT joint_8
						{
							OFFSET 7.301758 -32.590759 -269.966064
							CHANNELS 3 Zrotation Yrotation Xrotation
							JOINT joint_9
							{
								OFFSET 35.581055 -8.517151 -242.326965
								CHANNELS 3 Zrotation Yrotation Xrotation
								End Site
								{
									OFFSET 0.000000 0.000000 0.000000
								}
							}
						}
					}
				}
				JOINT joint_10
				{
					OFFSET 7.819092 28.232056 74.432983
					CHANNELS 3 Zrotation Yrotation Xrotation
					JOINT joint_11
					{
						OFFSET -23.457031 135.063843 -22.406982
						CHANNELS 3 Zrotation Yrotation Xrotation
						JOINT joint_12
						{
							OFFSET 17.896973 48.138672 -267.131958
							CHANNELS 3 Zrotation Yrotation Xrotation
							JOINT joint_13
							{
								OFFSET 46.526367 17.567627 -239.975037
								CHANNELS 3 Zrotation Yrotation Xrotation
								End Site
								{
									OFFSET 0.000000 0.000000 0.000000
								}
							}
						}
					}
				}
			}
		}
	}
	JOINT joint_14
	{
		OFFSET 10.553467 -100.140320 -126.306030
		CHANNELS 3 Zrotation Yrotation Xrotation
		JOINT joint_15
		{
			OFFSET -52.094238 -9.565002 -436.052002
			CHANNELS 3 Zrotation Yrotation Xrotation
			JOINT joint_16
			{
				OFFSET -55.682617 -11.310120 -462.482971
				CHANNELS 3 Zrotation Yrotation Xrotation
				JOINT joint_17
				{
					OFFSET 179.119385 -5.942566 -84.087004
					CHANNELS 3 Zrotation Yrotation Xrotation
					End Site
					{
						OFFSET 0.000000 0.000000 0.000000
					}
				}
			}
		}
	}
	JOINT joint_18
	{
		OFFSET -22.235352 101.620483 -123.583984
		CHANNELS 3 Zrotation Yrotation Xrotation
		JOINT joint_19
		{
			OFFSET -38.118408 12.306396 -437.429016
			CHANNELS 3 Zrotation Yrotation Xrotation
			JOINT joint_20
			{
				OFFSET -51.789307 8.010498 -463.006004
				CHANNELS 3 Zrotation Yrotation Xrotation
				JOINT joint_21
				{
					OFFSET 170.088135 59.632324 -83.078003
					CHANNELS 3 Zrotation Yrotation Xrotation
					End Site
					{
						OFFSET 0.000000 0.000000 0.000000
					}
				}
			}
		}
	}
}
MOTION
Frames: 10
Frame Time: 0.016667
-3057.812988 974.911987 1148.354980 1.833621 7.069596 1.110310 -0.448308 5.574646 3.620437 -0.480073 -1.018525 -0.921692 -0.649849 0.960748 0.496301 0.964730 -8.300688 -0.844746 0.000000 0.000000 0.000000 -15.400881 19.535064 -14.966582 -2.157297 16.749913 -1.198525 -171.046557 -67.944149 -162.868344 0.000000 0.000000 0.000000 4.338018 30.061073 0.833571 6.978882 11.477907 2.253714 173.147182 -82.213272 -173.467647 0.000000 0.000000 0.000000 2.186544 -12.630036 -4.887897 0.942331 24.584726 2.716598 2.696930 1.203726 1.228722 0.000000 0.000000 0.000000 -2.140553 -4.087070 1.249963 -1.341922 6.130918 -3.078468 -1.322666 7.260603 -3.163985 0.000000 0.000000 0.000000 
-3051.834961 973.245239 1149.641968 1.631752 7.059294 1.574449 -0.542145 5.500144 3.452767 -0.668052 -0.973998 -0.967519 -0.875402 0.922480 0.526785 0.979055 -7.469116 -0.978627 0.000000 0.000000 0.000000 -14.975981 19.370385 -14.129441 -2.712589 15.867788 -2.475016 -171.039288 -67.159018 -162.776422 0.000000 0.000000 0.000000 4.429730 29.802413 0.790077 7.046590 11.528038 2.038647 173.426122 -82.809562 -173.215480 0.000000 0.000000 0.000000 2.314166 -15.149501 -5.981362 0.938829 29.139839 3.778775 3.297913 0.567080 1.451354 0.000000 0.000000 0.000000 -2.555416 -4.062259 1.218663 -1.642829 6.572495 -3.611531 -1.636194 8.092833 -3.598663 0.000000 0.000000 0.000000 
-3046.081543 971.334900 1150.686035 1.451630 6.972739 2.010951 -0.649828 5.444699 3.287219 -0.858708 -0.958179 -0.976837 -1.090232 0.887629 0.551985 1.007754 -6.565253 -1.166876 0.000000 0.000000 0.000000 -14.560250 19.176909 -13.342444 -3.211896 14.973322 -3.646464 -171.038644 -66.418695 -162.894530 0.000000 0.000000 0.000000 4.457059 29.419419 0.678896 7.213545 11.562934 2.039750 173.787031 -83.538745 -172.941526 0.000000 0.000000 0.000000 2.380530 -17.215199 -6.966443 0.955116 32.375230 4.510959 3.729068 -0.237750 1.596487 0.000000 0.000000 0.000000 -2.877530 -3.908715 1.110075 -1.898095 6.897936 -3.983198 -1.891224 8.881887 -3.991830 0.000000 0.000000 0.000000 
-3040.305908 969.341125 1151.598999 1.330972 6.750411 2.264248 -0.784574 5.501601 3.330007 -1.016441 -0.996392 -0.976892 -1.251670 0.900551 0.561179 1.052788 -5.666106 -1.389933 0.000000 0.000000 0.000000 -14.467266 18.839305 -12.855503 -3.497453 14.187544 -4.352729 -170.894529 -65.801195 -163.549955 0.000000 0.000000 0.000000 4.588789 28.980178 0.696764 7.352192 11.464837 2.031164 174.080578 -84.428282 -172.658423 0.000000 0.000000 0.000000 2.375628 -18.350725 -7.585774 0.926217 33.203092 4.680260 3.730158 -1.474844 1.555135 0.000000 0.000000 0.000000 -2.957431 -3.508231 0.952940 -2.009284 7.045120 -4.000770 -1.968711 9.597450 -4.279877 0.000000 0.000000 0.000000 
-3034.671875 967.219116 1152.340942 1.207359 6.451162 2.365084 -0.946811 5.565485 3.553532 -1.139222 -1.045808 -0.991194 -1.360137 0.932317 0.563873 1.115421 -4.722746 -1.655358 0.000000 0.000000 0.000000 -14.538968 18.432771 -12.555851 -3.670859 13.446309 -4.759442 -170.672121 -65.280879 -164.589217 0.000000 0.000000 0.000000 4.724052 28.436833 0.716092 7.528819 11.298249 2.147248 174.397482 -85.496788 -172.360490 0.000000 0.000000 0.000000 2.338708 -18.860393 -7.950863 0.845318 32.198282 4.523675 3.418909 -3.155365 1.373170 0.000000 0.000000 0.000000 -2.851551 -2.936933 0.778920 -2.000224 7.044104 -3.750906 -1.900186 10.238718 -4.476615 0.000000 0.000000 0.000000 
-3029.008545 964.607422 1152.723022 1.010905 6.095627 2.385716 -1.073650 5.644762 3.831176 -1.197031 -1.088955 -1.020832 -1.394252 0.975117 0.566627 1.186123 -3.767237 -1.931062 0.000000 0.000000 0.000000 -14.629107 17.914578 -12.272071 -3.809631 12.702035 -5.064169 -170.473974 -64.861342 -165.623798 0.000000 0.000000 0.000000 4.888037 27.858238 0.755764 7.723949 11.086499 2.403319 174.712984 -86.605800 -172.027479 0.000000 0.000000 0.000000 2.202213 -19.043874 -8.041349 0.674304 30.149789 3.951152 2.829339 -4.502125 1.083091 0.000000 0.000000 0.000000 -2.646308 -2.291861 0.652098 -1.900756 7.082303 -3.439907 -1.747309 10.727039 -4.581028 0.000000 0.000000 0.000000 
-3023.152344 961.273804 1152.785034 0.677041 5.696895 2.363887 -1.124553 5.754959 4.094486 -1.163535 -1.115494 -1.068113 -1.330900 1.022443 0.572202 1.264297 -2.817349 -2.212208 0.000000 0.000000 0.000000 -14.679656 17.244530 -11.854543 -3.925381 11.915491 -5.391218 -170.340384 -64.574238 -166.463796 0.000000 0.000000 0.000000 5.133102 27.313601 0.848704 7.908294 10.832838 2.776464 174.994308 -87.669751 -171.618797 0.000000 0.000000 0.000000 1.887732 -19.002807 -7.786051 0.372279 27.210012 2.747809 1.935338 -5.019245 0.684168 0.000000 0.000000 0.000000 -2.371105 -1.577789 0.593780 -1.720902 7.160862 -3.154158 -1.528357 11.127955 -4.623949 0.000000 0.000000 0.000000 
-3017.173828 957.353577 1152.603027 0.293197 5.214209 2.336584 -1.123201 5.951312 4.297314 -1.079589 -1.166738 -1.086480 -1.216920 1.080539 0.576718 1.351876 -1.858397 -2.507067 0.000000 0.000000 0.000000 -14.752622 16.445438 -11.348175 -3.996028 11.093248 -5.689818 -170.229090 -64.425058 -167.252373 0.000000 0.000000 0.000000 5.449103 26.768456 0.981605 8.085279 10.524469 3.260635 175.250935 -88.760466 -171.144220 0.000000 0.000000 0.000000 1.344771 -18.479298 -7.270225 -0.087864 22.813542 1.013557 0.813312 -4.497251 0.211149 0.000000 0.000000 0.000000 -2.015679 -0.735245 0.515009 -1.467041 7.203202 -2.799407 -1.230601 11.508790 -4.624266 0.000000 0.000000 0.000000 
-3011.256348 952.826477 1151.421021 0.002085 4.612738 2.387694 -1.083175 6.243888 4.322689 -0.997070 -1.258353 -1.041024 -1.113958 1.149072 0.588059 1.418846 -0.892144 -2.749523 0.000000 0.000000 0.000000 -14.730920 15.596271 -10.881420 -4.171982 10.261883 -6.057221 -170.265501 -64.291169 -167.738710 0.000000 0.000000 0.000000 5.707765 26.115802 1.114819 8.304729 10.197321 3.933700 175.530323 -89.866070 -170.732123 0.000000 0.000000 0.000000 0.686386 -17.718510 -6.776256 -0.626961 18.398353 -0.491365 -0.204116 -3.054628 -0.194669 0.000000 0.000000 0.000000 -1.702719 -0.003096 0.458286 -1.204369 7.768076 -2.573470 -0.975531 11.358407 -4.455535 0.000000 0.000000 0.000000 
-3005.437988 947.586243 1148.598999 -0.233409 3.912118 2.458632 -1.004790 6.529184 4.295309 -0.880867 -1.340730 -1.037491 -0.983337 1.208093 0.622594 1.430986 0.126281 -2.869956 0.000000 0.000000 0.000000 -14.526319 14.764727 -10.549667 -4.566590 9.442720 -6.587650 -170.571605 -64.081504 -167.729924 0.000000 0.000000 0.000000 5.827010 25.269242 1.238545 8.596288 9.875121 4.894486 -4.128227 -88.959753 9.490522 0.000000 0.000000 0.000000 0.039203 -17.026952 -6.275297 -1.185261 15.057294 -1.436995 -1.048317 -1.274000 -0.515423 0.000000 0.000000 0.000000 -1.497595 0.484680 0.576207 -0.963002 9.200752 -2.627969 -0.847928 10.210844 -3.989835 0.000000 0.000000 0.000000 
